<svg viewBox="0 0 1322 1378" xmlns="http://www.w3.org/2000/svg">
    <path
        d="M486.84 0.255859H495.629L519.066 11.9746L545.434 20.7637L579.125 28.0879L614.281 32.4824L642.113 33.9473H667.016L713.891 31.0176L757.836 23.6934L794.457 13.4395L822.289 0.255859L832.543 1.7207L904.32 31.0176L962.914 54.4551L1017.11 76.4277L1040.55 86.6816L1050.8 98.4004L1066.92 117.443L1084.5 137.951L1103.54 159.924L1121.12 180.432L1140.16 202.404L1157.74 222.912L1172.39 239.025L1185.57 255.139L1200.22 271.252L1213.4 287.365L1228.05 303.479L1241.23 319.592L1255.88 335.705L1269.07 351.818L1283.71 367.932L1296.9 384.045L1311.55 400.158L1321.8 413.342L1315.94 422.131L1286.64 451.428L1276.39 463.146L1254.42 485.119L1244.16 496.838L1220.73 520.275L1210.47 531.994L1192.89 549.572L1182.64 561.291L1166.53 577.404L1156.27 589.123L1132.84 612.561L1122.58 624.279L1118.19 628.674L1110.86 625.744L1093.29 612.561L1072.78 597.912L1059.59 589.123L1061.06 594.982L1075.71 946.545L1091.82 1346.45V1377.21H240.746V1312.76L252.465 737.072L253.93 677.014V606.701L233.422 624.279L221.703 634.533L215.844 633.068L149.926 567.15L139.672 555.432L86.9375 502.697L76.6836 490.979L29.8086 444.104L19.5547 432.385L0.511719 413.342L9.30078 401.623L22.4844 386.975L35.668 370.861L48.8516 356.213L60.5703 341.564L78.1484 321.057L94.2617 302.014L111.84 281.506L144.066 243.42L161.645 222.912L177.758 203.869L195.336 183.361L208.52 167.248L227.562 145.275L262.719 104.26L270.043 96.9355L331.566 69.1035L391.625 42.7363L457.543 13.4395L486.84 0.255859Z"
        fill="currentColor"/>
    <path
        d="M486.84 0.255859H495.629L519.066 11.9746L545.434 20.7637L579.125 28.0879L614.281 32.4824L642.113 33.9473H667.016L713.891 31.0176L757.836 23.6934L794.457 13.4395L822.289 0.255859L832.543 1.7207L904.32 31.0176L962.914 54.4551L1017.11 76.4277L1040.55 86.6816L1050.8 98.4004L1066.92 117.443L1084.5 137.951L1103.54 159.924L1121.12 180.432L1140.16 202.404L1157.74 222.912L1172.39 239.025L1185.57 255.139L1200.22 271.252L1213.4 287.365L1228.05 303.479L1241.23 319.592L1255.88 335.705L1269.07 351.818L1283.71 367.932L1296.9 384.045L1311.55 400.158L1321.8 413.342L1315.94 422.131L1286.64 451.428L1276.39 463.146L1254.42 485.119L1244.16 496.838L1220.73 520.275L1210.47 531.994L1192.89 549.572L1182.64 561.291L1166.53 577.404L1156.27 589.123L1132.84 612.561L1122.58 624.279L1118.19 628.674L1110.86 625.744L1093.29 612.561L1072.78 597.912L1059.59 589.123L1061.06 594.982L1075.71 946.545L1091.82 1346.45V1377.21H240.746V1312.76L252.465 737.072L253.93 677.014V606.701L233.422 624.279L221.703 634.533L215.844 633.068L149.926 567.15L139.672 555.432L86.9375 502.697L76.6836 490.979L29.8086 444.104L19.5547 432.385L0.511719 413.342L9.30078 401.623L22.4844 386.975L35.668 370.861L48.8516 356.213L60.5703 341.564L78.1484 321.057L94.2617 302.014L111.84 281.506L144.066 243.42L161.645 222.912L177.758 203.869L195.336 183.361L208.52 167.248L227.562 145.275L262.719 104.26L270.043 96.9355L331.566 69.1035L391.625 42.7363L457.543 13.4395L486.84 0.255859ZM858.91 19.2988L850.121 52.9902L838.402 82.2871L823.754 105.725L813.5 118.908L800.316 133.557L782.738 149.67L760.766 164.318L737.328 176.037L713.891 184.826L684.594 190.686L674.34 192.15H637.719L611.352 187.756L586.449 180.432L560.082 168.713L536.645 154.064L517.602 137.951L501.488 121.838L485.375 99.8652L473.656 79.3574L464.867 57.3848L457.543 32.4824L454.613 22.2285L429.711 32.4824L376.977 55.9199L333.031 74.9629L272.973 101.33L271.508 102.795L268.578 211.193L246.605 1292.25V1309.83H249.535L246.605 1314.22V1327.4H1071.31L1065.45 1328.87L1018.58 1330.33H246.605V1343.52H249.535L246.605 1347.91V1371.35H1085.96V1355.24L1084.5 1347.91H1080.1V1343.52H1084.5V1314.22H1080.1V1309.83H1084.5L1037.62 136.486L1036.16 96.9355L1034.69 89.6113L992.211 72.0332L882.348 28.0879L872.094 25.1582L869.164 28.0879L867.699 22.2285L858.91 19.2988Z"
        fill="#ffffff" style="fill-opacity:0.2;" />
    <path
        d="M1040.55 96.9355L1049.34 104.26L1062.52 120.373L1075.71 135.021L1088.89 151.135L1103.54 167.248L1116.72 183.361L1129.91 198.01L1143.09 214.123L1157.74 230.236L1170.92 246.35L1184.11 260.998L1197.29 277.111L1211.94 293.225L1225.12 309.338L1239.77 325.451L1252.95 341.564L1267.6 357.678L1280.79 373.791L1291.04 385.51L1296.9 392.834L1293.97 400.158L1282.25 410.412L1272 422.131L1188.5 505.627L1178.25 517.346L1153.34 542.248L1143.09 553.967L1109.4 587.658L1099.14 599.377L1094.75 603.771L1088.89 602.307L1085.96 600.842V596.447L1081.57 597.912L1061.06 583.264L1059.59 580.334L1053.73 447.033L1040.55 117.443V96.9355Z"
        fill="currentColor" />
    <path
        d="M264.184 110.119H265.648V171.643L256.859 596.447L246.605 605.236H242.211L237.816 611.096L231.957 609.631L223.168 600.842V597.912L217.309 594.982L204.125 580.334L100.121 476.33L89.8672 464.611L22.4844 397.229L25.4141 391.369L29.8086 389.904L31.2734 384.045L44.457 369.396L57.6406 353.283L76.6836 331.311L108.91 293.225L126.488 272.717L139.672 256.604L157.25 236.096L170.434 219.982L189.477 198.01L202.66 181.896L221.703 159.924L237.816 140.881L264.184 110.119Z"
        fill="currentColor" />
    <path
        d="M1071.31 1327.4H1084.5V1343.52H1080.1V1347.91H1084.5L1085.96 1355.24V1371.35H246.605V1347.91L249.535 1343.52H246.605V1330.33H1028.83L1065.45 1328.87L1071.31 1327.4Z"
        fill="currentColor" style="fill-opacity:0.1;" />
    <path
        d="M812.035 47.1309L814.965 48.5957L810.57 54.4551L806.176 67.6387L791.527 91.0762L771.02 113.049L750.512 129.162L732.934 139.416L706.566 149.67L677.27 155.529H640.648L611.352 149.67L587.914 140.881L564.477 127.697L548.363 114.514L529.32 95.4707L516.137 76.4277L504.418 54.4551V50.0605L511.742 51.5254L538.109 60.3145L571.801 67.6387L605.492 72.0332L636.254 74.9629V126.232H677.27V74.9629L708.031 72.0332L749.047 66.1738L785.668 57.3848L809.105 48.5957L812.035 47.1309Z"
        fill="currentColor" />
    <path
        d="M485.375 7.58008L488.305 10.5098L492.699 33.9473L500.023 55.9199L514.672 83.752L530.785 104.26L545.434 118.908L567.406 135.021L590.844 146.74L609.887 154.064L628.93 158.459L640.648 159.924H677.27L706.566 154.064L730.004 145.275L751.977 133.557L771.02 118.908L781.273 110.119L794.457 94.0059L804.711 79.3574L816.43 55.9199L825.219 29.5527L829.613 7.58008L853.051 16.3691L854.516 19.2988L847.191 50.0605L839.867 69.1035L825.219 96.9355L812.035 114.514L795.922 132.092L779.809 146.74L757.836 161.389L734.398 173.107L703.637 183.361L678.734 187.756H634.789L609.887 183.361L586.449 176.037L565.941 167.248L543.969 154.064L523.461 137.951L507.348 121.838L488.305 96.9355L470.727 63.2441L463.402 41.2715L460.473 28.0879V19.2988L485.375 7.58008Z"
        fill="currentColor" style="fill-opacity:0.1;" />

    <path
        d="M1299.83 398.693L1305.69 401.623L1314.48 411.877L1311.55 417.736L1293.97 436.779L1274.93 455.822L1264.67 467.541L1241.23 490.979L1230.98 502.697L1207.54 526.135L1197.29 537.854L1178.25 556.896L1167.99 568.615L1147.48 589.123L1137.23 600.842L1124.05 614.025L1118.19 621.35L1110.86 618.42L1097.68 609.631V605.236L1159.2 543.713L1169.46 531.994L1219.26 482.189L1229.52 470.471L1274.93 425.061L1285.18 413.342L1299.83 398.693Z"
        fill="currentColor" style="fill-opacity:0.1;" />
    <path
        d="M18.0898 400.158L23.9492 403.088L34.2031 414.807L78.1484 458.752V461.682L82.543 463.146L92.7969 474.865L231.957 614.025L230.492 619.885L218.773 628.674L176.293 586.193L166.039 574.475L107.445 515.881L97.1914 504.162L48.8516 455.822L38.5977 444.104L9.30078 414.807L10.7656 408.947L18.0898 400.158Z"
        fill="currentColor" style="fill-opacity:0.1;" />
    <path
        d="M271.508 662.365L274.438 666.76L283.227 697.521L296.41 734.143L313.988 773.693L331.566 805.92L349.145 835.217L369.652 864.514L388.695 887.951L401.879 902.6L412.133 914.318L439.965 942.15L456.078 955.334L469.262 967.053L492.699 984.631L519.066 1002.21L548.363 1019.79L587.914 1040.29L604.027 1047.62L599.633 1049.08L560.082 1031.51L529.32 1015.39L494.164 993.42L470.727 975.842L451.684 961.193L429.711 942.15L391.625 904.064L378.441 887.951L360.863 865.979L343.285 839.611L325.707 810.314L308.129 776.623L293.48 741.467L277.367 693.127L271.508 669.689V662.365Z"
        fill="#D9D9D9"
        style="fill:#D9D9D9;fill:color(display-p3 0.8510 0.8510 0.8510);fill-opacity:0.1;" />
    <path
        d="M1055.2 675.549L1056.66 681.408L1040.55 729.748L1020.04 772.229L1001 802.99L986.352 823.498L970.238 842.541L959.984 854.26L936.547 877.697L920.434 890.881L902.855 904.064L876.488 921.643L844.262 939.221L807.641 953.869L801.781 952.404L823.754 943.615L857.445 926.037L880.883 911.389L896.996 899.67L916.039 885.021L933.617 868.908L945.336 858.654L955.59 848.4L968.773 832.287L979.027 820.568L999.535 792.736L1015.65 766.369L1034.69 729.748L1046.41 701.916L1055.2 675.549Z"
        fill="currentColor"
        style="fill:#D9D9D9;fill:color(display-p3 0.8510 0.8510 0.8510);fill-opacity:0.1;" />
    <path
        d="M495.629 1098.89L501.488 1101.82L523.461 1116.47L552.758 1132.58L582.055 1144.3L615.746 1154.55L646.508 1160.41L677.27 1163.34H721.215L763.695 1158.95L801.781 1151.62L842.797 1139.9L853.051 1138.44L850.121 1141.37L806.176 1156.02L766.625 1164.81L722.68 1170.67H664.086L631.859 1166.27L593.773 1156.02L563.012 1144.3L532.25 1128.19L507.348 1110.61L495.629 1100.35V1098.89Z"
        fill="#D9D9D9"
        style="fill:#D9D9D9;fill:color(display-p3 0.8510 0.8510 0.8510);fill-opacity:0.1;" />
    <path d="M640.648 74.9629H671.41V120.373H640.648V74.9629Z" fill="currentColor"
        style="fill:#FBFBFB;fill:color(display-p3 0.9843 0.9843 0.9843);fill-opacity:0.1;" />
    <path
        d="M268.578 549.572L271.508 555.432L280.297 589.123L292.016 619.885L303.734 644.787L321.312 672.619L335.961 693.127L355.004 715.1L372.582 732.678H368.188L353.539 719.494L341.82 709.24L324.242 688.732L311.059 671.154L299.34 652.111L287.621 628.674L277.367 600.842L271.508 577.404L268.578 559.826V549.572Z"
        fill="currentColor"
        style="fill:#D9D9D9;fill:color(display-p3 0.8510 0.8510 0.8510);fill-opacity:0.1;" />
    <path
        d="M1044.95 548.107H1046.41L1044.95 561.291L1036.16 587.658L1020.04 618.42L1006.86 635.998L993.676 650.646L979.027 665.295L955.59 682.873L948.266 687.268L945.336 685.803L961.449 672.619L973.168 660.9L981.957 653.576L992.211 641.857L1005.39 625.744L1020.04 603.771L1036.16 573.01L1044.95 548.107Z"
        fill="#D9D9D9"
        style="fill:#D9D9D9;fill:color(display-p3 0.8510 0.8510 0.8510);fill-opacity:0.1;" />
</svg>