<svg width="526" height="541" fill="none" xmlns="http://www.w3.org/2000/svg">
    <path
        d="m183.555.095 2.512.314 7.849 3.767 5.023 2.512 6.28 2.826 5.965 2.197 7.221 2.198 9.105 2.198 11.617 2.198 10.047 1.256 3.453.314 8.477.314h5.652l7.221-.314 10.361-1.256 8.477-1.57 9.419-2.198 11.303-3.768 12.872-5.023 9.105-4.395 2.512-.942 2.512.314 9.105 3.453 6.593 2.512 11.931 5.651 48.664 21.35 4.71 2.826 3.767 3.453 2.826 3.454 3.139 4.081 3.768 5.966 4.082 6.907 1.569 3.14 2.198 3.14 4.396 7.848 3.767 6.908 4.396 8.163 2.825 4.71 5.024 8.476 3.767 5.966 3.454 5.337 4.396 6.593 4.395 6.907 4.71 7.536 4.395 6.907 5.023 8.163 3.768 5.965 3.14 4.71 4.081 5.965 5.024 7.221 4.395 6.28 5.024 7.535 2.511 4.395.628 2.198 2.512 3.454 1.256 2.825-.628 1.256-3.454 2.198-6.593 3.767-14.442 7.85-18.21 9.105-7.221 4.081-5.338 3.14-3.767 2.511-7.222 5.024-5.337 3.767-5.651 4.082-5.338 3.454-7.535 4.395-5.023 2.198-2.512.314-3.454-1.256-1.884-1.256-.314 15.384-.627 9.105-.314 35.164v94.818l.314 11.617v5.965l-.314 19.466v26.059l.314 13.814.627 7.849v44.583l-.941.314-32.967.314h-16.64l-6.279-.314h-56.828l-56.827-.628-6.908-.628-21.663-.941h-46.467l-18.838-.628-12.558-.628h-29.513l-5.966.314-.627-.628-.314-18.524-1.57-6.907-.314-3.14v-8.163l.628-6.279.942-7.85.314-33.594V290.198l.314-41.757-.942.942-1.884 3.453-2.512 3.454-1.57 1.57h-2.197l-5.338-1.884-7.221-3.768-10.675-6.279-10.36-5.337-8.164-4.396-7.849-4.081-5.651-3.14-8.791-4.709-8.477-4.396-5.966-3.14-8.163-4.395-7.22-4.082-5.024-3.139.628-1.57 2.825-4.396 5.338-9.105 3.14-5.023 5.337-8.791 4.71-7.849 4.08-6.593 5.024-8.477 4.71-7.536 3.767-5.965 5.338-8.791 5.965-10.047 3.14-4.709 4.395-7.221 4.396-6.908 4.71-7.535 4.395-7.535 3.767-6.907 4.71-8.791 3.453-6.28 4.71-7.849 4.395-6.593 2.826-3.767 3.14-4.082 2.825-3.14 2.512-2.511 4.395-2.826 5.024-2.512 9.733-4.71 8.477-3.767 12.872-5.651 15.385-6.593 6.279-2.826 7.849-3.768L182.613.41l.942-.314z"
        fill="currentcolor" />
</svg>