<svg width="1318" height="1378" viewBox="0 0 1318 1378" fill="none"
    xmlns="http://www.w3.org/2000/svg">
    <path
        d="M484.992 0.255859L493.781 3.18555L515.754 13.4395L545.051 22.2285L584.602 29.5527L612.434 32.4824L640.266 33.9473H671.027L713.508 31.0176L753.059 25.1582L791.145 14.9043L814.582 4.65039L821.906 0.255859L836.555 4.65039L996.223 69.1035L1035.77 85.2168L1050.42 101.33L1063.61 117.443L1076.79 132.092L1089.97 148.205L1104.62 164.318L1117.8 180.432L1132.45 196.545L1145.64 212.658L1161.75 230.236L1172 241.955L1188.12 260.998L1207.16 282.971L1224.74 303.479L1243.78 325.451L1261.36 345.959L1280.4 367.932L1297.98 388.439L1311.16 403.088L1317.02 410.412L1314.09 416.271L1292.12 439.709L1273.08 458.752L1262.82 470.471L1239.39 493.908L1229.13 505.627L1208.62 526.135L1198.37 537.854L1179.33 556.896L1169.07 568.615L1151.5 586.193L1141.24 597.912L1111.95 627.209L1082.65 606.701L1059.21 589.123V609.631L1089.97 1368.42V1377.21H237.434V1330.33L250.617 696.057L252.082 630.139V605.236L235.969 618.42L219.855 633.068L213.996 630.139L192.023 608.166L181.77 596.447L124.641 539.318V536.389L118.781 533.459L102.668 515.881L66.0469 479.26L55.793 467.541L3.05859 414.807L0.128906 408.947L13.3125 394.299L26.4961 378.186L45.5391 356.213L61.6523 337.17L74.8359 321.057L93.8789 299.084L107.062 282.971L120.246 268.322L133.43 252.209L152.473 230.236L168.586 211.193L186.164 190.686L199.348 174.572L212.531 159.924L225.715 143.811L238.898 129.162L250.617 114.514L263.801 98.4004L309.211 77.8926L348.762 60.3145L408.82 33.9473L474.738 4.65039L484.992 0.255859Z"
        fill="currentColor" />
    <path
        d="M484.992 0.255859L493.781 3.18555L515.754 13.4395L545.051 22.2285L584.602 29.5527L612.434 32.4824L640.266 33.9473H671.027L713.508 31.0176L753.059 25.1582L791.145 14.9043L814.582 4.65039L821.906 0.255859L836.555 4.65039L996.223 69.1035L1035.77 85.2168L1050.42 101.33L1063.61 117.443L1076.79 132.092L1089.97 148.205L1104.62 164.318L1117.8 180.432L1132.45 196.545L1145.64 212.658L1161.75 230.236L1172 241.955L1188.12 260.998L1207.16 282.971L1224.74 303.479L1243.78 325.451L1261.36 345.959L1280.4 367.932L1297.98 388.439L1311.16 403.088L1317.02 410.412L1314.09 416.271L1292.12 439.709L1273.08 458.752L1262.82 470.471L1239.39 493.908L1229.13 505.627L1208.62 526.135L1198.37 537.854L1179.33 556.896L1169.07 568.615L1151.5 586.193L1141.24 597.912L1111.95 627.209L1082.65 606.701L1059.21 589.123V609.631L1089.97 1368.42V1377.21H237.434V1330.33L250.617 696.057L252.082 630.139V605.236L235.969 618.42L219.855 633.068L213.996 630.139L192.023 608.166L181.77 596.447L124.641 539.318V536.389L118.781 533.459L102.668 515.881L66.0469 479.26L55.793 467.541L3.05859 414.807L0.128906 408.947L13.3125 394.299L26.4961 378.186L45.5391 356.213L61.6523 337.17L74.8359 321.057L93.8789 299.084L107.062 282.971L120.246 268.322L133.43 252.209L152.473 230.236L168.586 211.193L186.164 190.686L199.348 174.572L212.531 159.924L225.715 143.811L238.898 129.162L250.617 114.514L263.801 98.4004L309.211 77.8926L348.762 60.3145L408.82 33.9473L474.738 4.65039L484.992 0.255859ZM439.582 26.623L430.793 31.0176V35.4121L423.469 33.9473L318 80.8223L271.125 101.33L269.66 102.795L268.195 124.768L262.336 408.947L259.406 521.74L244.758 1246.84V1309.83H247.688V1314.22H244.758L243.293 1327.4H1069.46L1063.61 1328.87L1016.73 1330.33H243.293V1343.52H247.688V1347.91H243.293V1371.35H1082.65L1084.11 1365.49L1082.65 1347.91H1078.25L1082.65 1343.52V1328.87L1081.18 1314.22H1078.25L1081.18 1309.83V1292.25L1032.84 91.0762L1015.27 82.2871L890.754 32.4824L883.43 35.4121L884.895 31.0176L876.105 26.623L868.781 28.0879L843.879 39.8066L807.258 52.9902L766.242 63.2441L722.297 70.5684L682.746 73.498H622.688L577.277 69.1035L531.867 60.3145L495.246 50.0605L464.484 38.3418L439.582 26.623Z"
        fill="#ffffff"
        style="fill-opacity:0.2;" />
    <path
        d="M1037.24 96.9355H1040.17L1053.35 113.049L1066.54 127.697L1079.72 143.811L1092.9 158.459L1106.09 174.572L1120.73 190.686L1133.92 206.799L1147.1 221.447L1160.29 237.561L1174.93 253.674L1188.12 269.787L1201.3 284.436L1214.48 300.549L1229.13 316.662L1242.32 332.775L1258.43 350.354L1271.61 366.467L1286.26 382.58L1287.73 388.439L1293.59 391.369L1284.8 401.623L1240.85 445.568L1230.6 457.287L1177.86 510.021L1167.61 521.74L1136.85 552.502L1120.73 570.08L1088.51 602.307L1082.65 599.377L1079.72 594.982L1072.39 592.053L1057.75 581.799L1056.28 568.615L1038.7 146.74L1037.24 96.9355Z"
        fill="currentColor" />
    <path
        d="M260.871 110.119H263.801L255.012 552.502L253.547 596.447L246.223 602.307H240.363L237.434 608.166L231.574 606.701L172.98 548.107L162.727 536.389L70.4414 444.104L60.1875 432.385L22.1016 394.299L25.0312 388.439L29.4258 386.975L30.8906 381.115L44.0742 366.467L57.2578 350.354L76.3008 328.381L89.4844 312.268L108.527 290.295L140.754 252.209L153.938 236.096L171.516 215.588L184.699 199.475L203.742 177.502L221.32 156.994L253.547 118.908L260.871 110.119Z"
        fill="currentColor"/>
    <path
        d="M1069.46 1327.4H1081.18L1082.65 1328.87V1343.52L1078.25 1347.91H1082.65L1084.11 1369.88L1082.65 1371.35H243.293V1347.91H247.688V1343.52H243.293V1330.33H1026.98L1063.61 1328.87L1069.46 1327.4Z"
        fill="currentColor"
        style="fill-opacity:0.1;" />
    <path
        d="M823.371 6.11523L861.457 20.7637L865.852 25.1582L840.949 36.877L808.723 48.5957L769.172 58.8496L725.227 66.1738L693 69.1035L643.195 70.5684L597.785 67.6387L549.445 60.3145L508.43 50.0605L474.738 38.3418L448.371 26.623L446.906 23.6934L482.062 7.58008L492.316 9.04492L514.289 19.2988L550.91 29.5527L584.602 35.4121L612.434 38.3418H697.395L735.48 33.9473L770.637 26.623L795.539 19.2988L823.371 6.11523Z"
        fill="currentColor"
        style="fill-opacity:0.1;" />
    <path
        d="M1295.05 397.229L1300.91 400.158L1309.7 410.412L1306.77 416.271L1293.59 429.455L1283.33 441.174L1261.36 463.146L1251.11 474.865L1227.67 498.303L1217.41 510.021L1198.37 529.064L1188.12 540.783L1163.21 565.686L1152.96 577.404L1135.38 594.982L1125.13 606.701L1111.95 619.885L1095.83 609.631L1092.9 603.771L1136.85 559.826L1147.1 548.107L1191.05 504.162L1201.3 492.443L1262.82 430.92L1273.08 419.201L1295.05 397.229Z"
        fill="currentColor"
        style="fill-opacity:0.1;" />
    <path
        d="M17.707 397.229L27.9609 406.018L44.0742 422.131V425.061H47.0039V427.99H49.9336L60.1875 439.709L123.176 502.697V505.627L127.57 507.092L134.895 515.881L146.613 526.135L158.332 539.318L170.051 549.572L181.77 561.291L192.023 573.01L231.574 612.561L230.109 616.955L219.855 625.744H216.926L211.066 619.885V616.955H208.137L197.883 605.236L145.148 552.502L134.895 540.783L85.0898 490.979L74.8359 479.26L27.9609 432.385L17.707 420.666L7.45312 410.412L16.2422 398.693L17.707 397.229Z"
        fill="currentColor"
        style="fill-opacity:0.1;" />
    <path
        d="M1024.05 696.057L1025.52 698.986L1010.87 722.424L993.293 747.326L981.574 761.975L968.391 776.623L958.137 788.342L933.234 813.244L921.516 823.498L903.938 838.146L877.57 857.189L849.738 874.768L826.301 887.951L794.074 902.6L758.918 915.783L731.086 924.572L690.07 933.361L672.492 936.291L641.73 939.221H616.828V937.756L660.773 933.361L706.184 924.572L742.805 914.318L777.961 901.135L817.512 883.557L849.738 865.979L884.895 842.541L909.797 823.498L928.84 807.385L943.488 794.201L966.926 770.764L977.18 759.045L997.688 734.143L1018.2 704.846L1024.05 696.057Z"
        fill="#D9D9D9"
        style="fill:#D9D9D9;fill:color(display-p3 0.8510 0.8510 0.8510);fill-opacity:0.1;" />
    <path
        d="M297.492 552.502L300.422 558.361L307.746 586.193L316.535 608.166L328.254 633.068L345.832 660.9L363.41 684.338L379.523 701.916L402.961 725.354L416.145 735.607L435.188 750.256L457.16 764.904L476.203 776.623L502.57 791.271L545.051 811.779L583.137 827.893L578.742 829.357L539.191 814.709L504.035 798.596L474.738 783.947L442.512 764.904L414.68 744.396L398.566 731.213L375.129 709.24L361.945 694.592L341.438 666.76L325.324 640.393L312.141 612.561L301.887 580.334L297.492 559.826V552.502Z"
        fill="#D9D9D9"
        style="fill:#D9D9D9;fill:color(display-p3 0.8510 0.8510 0.8510);fill-opacity:0.1;" />
    <path
        d="M865.852 1011L868.781 1012.46L845.344 1027.11L823.371 1038.83L794.074 1050.55L763.312 1060.8L732.551 1068.13L706.184 1072.52L687.141 1073.99H638.801L600.715 1069.59L567.023 1062.27L531.867 1050.55L528.938 1047.62L543.586 1050.55L565.559 1056.41L605.109 1063.73L641.73 1066.66H679.816L719.367 1062.27L757.453 1054.94L797.004 1043.22L832.16 1028.58L861.457 1013.93L865.852 1011Z"
        fill="#D9D9D9"
        style="fill:#D9D9D9;fill:color(display-p3 0.8510 0.8510 0.8510);fill-opacity:0.1;" />
</svg>