<svg width="96" height="96" viewBox="0 0 96 96" fill="none" xmlns="http://www.w3.org/2000/svg">
<g id="Frame 70">
<rect width="96" height="96" fill="#E6E6E6"/>
<g id="imagesmode">
<mask id="mask0_259_46328" style="mask-type:alpha" maskUnits="userSpaceOnUse" x="36" y="36" width="24" height="24">
<rect id="Bounding box" x="36" y="36" width="24" height="24" fill="#D9D9D9"/>
</mask>
<g mask="url(#mask0_259_46328)">
<path id="imagesmode_2" d="M41 57C40.45 57 39.9792 56.8042 39.5875 56.4125C39.1958 56.0208 39 55.55 39 55V41C39 40.45 39.1958 39.9792 39.5875 39.5875C39.9792 39.1958 40.45 39 41 39H55C55.55 39 56.0208 39.1958 56.4125 39.5875C56.8042 39.9792 57 40.45 57 41V55C57 55.55 56.8042 56.0208 56.4125 56.4125C56.0208 56.8042 55.55 57 55 57H41ZM41 55H55V41H41V55ZM42 53H54L50.25 48L47.25 52L45 49L42 53ZM44.5 46C44.9167 46 45.2708 45.8542 45.5625 45.5625C45.8542 45.2708 46 44.9167 46 44.5C46 44.0833 45.8542 43.7292 45.5625 43.4375C45.2708 43.1458 44.9167 43 44.5 43C44.0833 43 43.7292 43.1458 43.4375 43.4375C43.1458 43.7292 43 44.0833 43 44.5C43 44.9167 43.1458 45.2708 43.4375 45.5625C43.7292 45.8542 44.0833 46 44.5 46Z" fill="#1C1B1F"/>
</g>
</g>
</g>
</svg>
