<svg width="101" height="21" viewBox="0 0 101 21" fill="none" xmlns="http://www.w3.org/2000/svg">
    <path
        d="M95.1758 10.0548C92.3859 10.0548 90.1484 7.84496 90.1484 5.0274C90.1484 2.23747 92.3859 0 95.1482 0C97.9658 0 100.203 2.23747 100.203 5.0274C100.203 7.81734 97.9658 10.0548 95.1758 10.0548ZM91.3362 5.0274C91.3362 7.182 93.0489 8.92226 95.1758 8.92226C97.2752 8.92226 98.9878 7.182 98.9878 5.0274C98.9878 2.8728 97.2752 1.13255 95.1758 1.13255C93.0489 1.13255 91.3362 2.8728 91.3362 5.0274ZM93.408 7.6516V2.34796H95.2035C96.2808 2.34796 97.0542 3.09379 97.0542 3.9501C97.0542 4.44732 96.8056 4.91691 96.4189 5.19314C96.8332 5.46937 97.0266 5.96659 97.0266 6.4638V7.6516H95.6731V6.60192C95.6731 6.18757 95.5073 5.91134 94.9825 5.91134H94.7615V7.6516H93.408ZM94.7615 4.75117H95.1206C95.4244 4.75117 95.6731 4.50256 95.6731 4.17109C95.6731 3.81199 95.4244 3.591 95.1206 3.591H94.7615V4.75117Z"
        fill="black" />
    <path
        d="M82.7024 20.1649C78.6418 20.1649 75.6309 17.3473 75.6309 13.2038H80.8792C80.8792 14.4469 81.6251 15.2756 82.7024 15.2756C83.6968 15.2756 84.3045 14.7231 84.3045 13.8944C84.3045 11.3531 75.7966 13.4524 75.7966 6.15995C75.7966 2.5137 78.4484 0 82.2052 0C86.4867 0 89.0004 2.95567 89.0004 6.98864H83.7797C83.8073 5.7456 83.1443 4.91691 82.1223 4.91691C81.4041 4.91691 80.9069 5.3865 80.9069 5.99421C80.9069 8.9775 89.3595 6.1047 89.4976 13.8944C89.5529 17.6512 86.6248 20.1649 82.7024 20.1649Z"
        fill="black" />
    <path
        d="M58.8574 19.7505L65.2936 0.414307H70.1553L76.5915 19.7505H70.9287L70.2934 17.2368H64.9897L64.3544 19.7505H58.8574ZM65.9842 12.3475H69.0503L67.5587 7.3477L65.9842 12.3475Z"
        fill="black" />
    <path
        d="M47.75 19.7505V0.414307H54.3795C58.302 0.414307 61.1748 2.98325 61.1748 6.87811C61.1748 10.7453 58.3573 13.7563 54.49 13.7563H52.9984V19.7505H47.75ZM52.9984 8.86697H54.1309C55.2359 8.86697 55.8988 8.0659 55.8988 7.09909C55.8988 6.10466 55.2359 5.33122 54.1309 5.33122H52.9984V8.86697Z"
        fill="black" />
    <path
        d="M33.6406 19.7505V0.414307H40.2702C44.1926 0.414307 47.0654 2.98325 47.0654 6.87811C47.0654 10.7453 44.2479 13.7563 40.3807 13.7563H38.889V19.7505H33.6406ZM38.889 8.86697H40.0216C41.1265 8.86697 41.7894 8.0659 41.7894 7.09909C41.7894 6.10466 41.1265 5.33122 40.0216 5.33122H38.889V8.86697Z"
        fill="black" />
    <path
        d="M15.6387 19.7505L22.0749 0.414307H26.9365L33.3727 19.7505H27.71L27.0746 17.2368H21.771L21.1357 19.7505H15.6387ZM22.7654 12.3475H25.8316L24.3399 7.3477L22.7654 12.3475Z"
        fill="black" />
    <path
        d="M6.96102 0.414307C12.8447 0.414307 16.9053 4.55777 16.9053 9.99952C16.9053 15.6623 12.8447 19.7505 6.96102 19.7505H0V0.414307H6.96102ZM5.24839 14.7783H7.34774C9.8062 14.7783 11.5465 12.679 11.5465 9.99952C11.5465 7.48582 9.83382 5.38646 7.34774 5.38646H5.24839V14.7783Z"
        fill="black" />
</svg>