<svg width="36" height="36" viewBox="0 0 36 36" fill="none" xmlns="http://www.w3.org/2000/svg">
    <mask id="mask0_93_7714" style="mask-type:alpha" maskUnits="userSpaceOnUse" x="0" y="0"
        width="36" height="36">
        <rect width="36" height="36" fill="#D9D9D9" />
    </mask>
    <g mask="url(#mask0_93_7714)">
        <path
            d="M7.5 31.5C6.675 31.5 5.96875 31.2063 5.38125 30.6188C4.79375 30.0312 4.5 29.325 4.5 28.5V7.5C4.5 6.675 4.79375 5.96875 5.38125 5.38125C5.96875 4.79375 6.675 4.5 7.5 4.5H28.5C29.325 4.5 30.0312 4.79375 30.6188 5.38125C31.2063 5.96875 31.5 6.675 31.5 7.5V28.5C31.5 29.325 31.2063 30.0312 30.6188 30.6188C30.0312 31.2063 29.325 31.5 28.5 31.5H7.5ZM7.5 28.5H28.5V7.5H7.5V28.5ZM9 25.5H27L21.375 18L16.875 24L13.5 19.5L9 25.5ZM12.75 15C13.375 15 13.9062 14.7812 14.3438 14.3438C14.7812 13.9062 15 13.375 15 12.75C15 12.125 14.7812 11.5938 14.3438 11.1562C13.9062 10.7188 13.375 10.5 12.75 10.5C12.125 10.5 11.5938 10.7188 11.1562 11.1562C10.7188 11.5938 10.5 12.125 10.5 12.75C10.5 13.375 10.7188 13.9062 11.1562 14.3438C11.5938 14.7812 12.125 15 12.75 15Z"
            fill="#1C1B1F" />
    </g>
</svg>