<svg viewBox="0 0 73 33" fill="none" xmlns="http://www.w3.org/2000/svg">
<path d="M60.668 17.9462C59.2132 17.9462 58.0299 16.6945 58.0299 15.1557V8.98933C58.0299 8.75233 57.8761 8.55132 57.6941 8.55132C57.512 8.55132 57.3583 8.75145 57.3583 8.98933V10.7054C57.3583 12.2441 56.175 13.4958 54.7211 13.4958H52.0392C51.4089 13.4958 50.8593 12.9999 50.8404 12.3556C50.8206 11.6894 51.3436 11.1425 51.9911 11.1425H54.7219C54.904 11.1425 55.0577 10.9424 55.0577 10.7045V8.98845C55.0577 7.44971 56.2411 6.19799 57.6958 6.19799C59.1505 6.19799 60.333 7.44971 60.333 8.98845V15.1548C60.333 15.3918 60.4868 15.5929 60.6688 15.5929C60.8509 15.5929 61.0046 15.3927 61.0046 15.1548V2.79046C61.0046 1.25171 62.1879 0 63.6427 0C65.0974 0 66.2799 1.25171 66.2799 2.79046V8.88136C66.2799 9.11836 66.4336 9.31937 66.6157 9.31937C66.7977 9.31937 66.9515 9.11924 66.9515 8.88136V7.77273C66.9497 7.21095 67.1764 6.66936 67.5895 6.24715C68.1099 5.71521 68.8819 5.40975 69.7072 5.40975H71.8008C72.4311 5.40975 72.9808 5.90569 72.9996 6.54998C73.0194 7.21622 72.4964 7.76307 71.8489 7.76307H69.7072C69.7072 7.76307 69.7029 7.76307 69.7003 7.76307C69.4496 7.76483 69.252 7.98515 69.2529 8.24058V8.88048C69.2529 10.421 68.0704 11.6727 66.6157 11.6727C65.1609 11.6727 63.9776 10.421 63.9776 8.88224V2.79046C63.9776 2.55346 63.8239 2.35245 63.6418 2.35245C63.4598 2.35245 63.306 2.55258 63.306 2.79046V15.1548C63.306 16.6936 62.1227 17.9453 60.6688 17.9453L60.668 17.9462Z" fill="#FC3FCF"/>
<path d="M11.0212 14.9731C10.1049 14.4158 9.06156 14.1357 7.89022 14.1357C6.15898 14.1357 4.7678 14.7195 3.71582 15.8869L3.67632 15.4103C3.5518 14.6808 2.92749 14.148 2.19583 14.148H1.50196C0.672404 14.148 0 14.8283 0 15.6683V30.9241C0 31.7633 0.672404 32.4444 1.50196 32.4444H2.49382C3.32337 32.4444 3.99578 31.7642 3.99578 30.9241V25.8795C5.03057 26.8758 6.32901 27.3735 7.89022 27.3735C9.0607 27.3735 10.1049 27.0944 11.0212 26.5361C11.9375 25.9787 12.6503 25.1966 13.1595 24.1924C13.6688 23.1883 13.923 22.0419 13.923 20.7542C13.923 19.4665 13.6688 18.3201 13.1595 17.3159C12.6503 16.3118 11.9375 15.5305 11.0212 14.9723V14.9731ZM9.11223 23.0856C8.55232 23.6781 7.83097 23.9739 6.94903 23.9739C6.06709 23.9739 5.34917 23.6737 4.79785 23.0724C4.24653 22.472 3.97087 21.6987 3.97087 20.7542C3.97087 19.8097 4.24653 19.0373 4.79785 18.436C5.34917 17.8356 6.06623 17.5345 6.94903 17.5345C7.83183 17.5345 8.55232 17.8303 9.11223 18.4228C9.67213 19.0153 9.95209 19.7921 9.95209 20.7533C9.95209 21.7145 9.67213 22.4922 9.11223 23.0838V23.0856Z" fill="#02196D"/>
<path d="M31.1167 9.09033H30.136C29.3159 9.09033 28.6504 9.78202 28.6504 10.6343V25.8612C28.6504 26.7144 29.3151 27.4052 30.136 27.4052H31.1167C31.9368 27.4052 32.6024 26.7135 32.6024 25.8612V10.6352C32.6024 9.78202 31.9377 9.09121 31.1167 9.09121V9.09033Z" fill="#02196D"/>
<path d="M57.8928 17.1334C57.3638 16.181 56.6047 15.4445 55.6145 14.9205C54.6244 14.3973 53.4496 14.1357 52.0902 14.1357C50.7308 14.1357 49.5981 14.4149 48.5917 14.9723C47.5852 15.5297 46.8003 16.3144 46.2378 17.3265C45.6753 18.3385 45.3945 19.4963 45.3945 20.7998C45.3945 22.1033 45.6796 23.3305 46.2507 24.325C46.8209 25.3204 47.635 26.0876 48.6921 26.6274C49.7493 27.1681 50.9996 27.4376 52.4423 27.4376C53.5329 27.4376 54.5609 27.2577 55.5261 26.8969C55.8584 26.7731 56.1753 26.63 56.4767 26.4694C57.3475 26.0051 57.5459 24.8209 56.8769 24.0871L56.7859 23.987C56.3488 23.5078 55.6609 23.37 55.0787 23.643C54.8829 23.7351 54.6759 23.8159 54.4561 23.8861C53.8687 24.0748 53.2641 24.1687 52.6441 24.1687C51.7545 24.1687 51.0245 23.9677 50.4543 23.564C49.8832 23.1611 49.5397 22.6335 49.4221 21.9813H57.1998C58.0165 21.9813 58.6846 21.2984 58.6846 20.4636C58.6846 19.1944 58.4201 18.084 57.892 17.1316L57.8928 17.1334ZM49.4478 19.6675C49.5148 18.9302 49.7956 18.3552 50.2911 17.9435C50.7858 17.5319 51.4281 17.3265 52.2165 17.3265C53.0048 17.3265 53.6635 17.5327 54.1418 17.9435C54.6201 18.3552 54.8846 18.9302 54.9344 19.6675H49.447H49.4478Z" fill="#02196D"/>
<path d="M26.1099 14.1357H25.1292C24.3091 14.1357 23.6436 14.8292 23.6436 15.6841V20.9306C23.6436 21.8058 23.4125 22.5176 22.9514 23.0689C22.4894 23.6201 21.8814 23.8949 21.1265 23.8949C20.4387 23.8949 19.8968 23.6588 19.5026 23.1865C19.1085 22.7143 18.911 22.0586 18.911 21.2194V15.6841C18.911 14.8292 18.2463 14.1357 17.4253 14.1357H16.4446C15.6245 14.1357 14.959 14.8292 14.959 15.6841V21.4555C14.959 23.3094 15.4124 24.7612 16.3184 25.8102C17.2244 26.8591 18.4412 27.3841 19.9681 27.3841C20.7736 27.3841 21.5164 27.2304 22.1957 26.925C22.875 26.6195 23.4503 26.1771 23.9201 25.6004L23.9561 26.1209C24.0807 26.8618 24.6981 27.4016 25.4195 27.4016H26.1099C26.93 27.4016 27.5955 26.7082 27.5955 25.8532V15.6841C27.5955 14.8292 26.9309 14.1357 26.1099 14.1357Z" fill="#02196D"/>
<path d="M44.6399 23.2408C44.6399 24.5443 44.1281 25.5696 43.1045 26.3157C42.4544 26.7897 41.6454 27.1127 40.6776 27.2856V28.0897C40.6776 28.9279 40.1564 29.6082 39.5131 29.6082H38.7437C38.0996 29.6082 37.5784 28.9279 37.5784 28.0897V27.369C36.4757 27.2505 35.4538 26.974 34.5109 26.5395C33.7209 26.1752 33.4074 25.1939 33.8282 24.4197L33.9424 24.2099C34.2988 23.555 35.0717 23.2566 35.757 23.5234C36.0618 23.6428 36.3839 23.7464 36.7239 23.8333C37.009 23.907 37.2941 23.9676 37.5784 24.015C38.0885 24.1002 38.5969 24.1423 39.1027 24.1423C39.9829 24.1423 40.5076 23.9474 40.6776 23.5559C40.718 23.462 40.7386 23.3575 40.7386 23.2417C40.7386 23.1258 40.718 23.0257 40.6776 22.9336C40.6072 22.7729 40.4775 22.6448 40.286 22.5474C39.9837 22.3929 39.4805 22.2902 38.7763 22.2393C38.3538 22.2164 37.9554 22.1708 37.5784 22.1014C36.5496 21.9145 35.6943 21.5572 35.0124 21.0297C34.0815 20.309 33.6152 19.3663 33.6152 18.1997C33.6152 16.9305 34.1193 15.9228 35.1258 15.1767C35.7896 14.6842 36.608 14.3551 37.5784 14.1874V13.4229C37.5784 12.5846 38.0996 11.9043 38.7437 11.9043H39.5131C40.1564 11.9043 40.6776 12.5846 40.6776 13.4229V14.154C41.1242 14.2137 41.5604 14.3015 41.9846 14.4174C42.2182 14.4806 42.4432 14.5517 42.6605 14.628C43.545 14.9432 43.9331 16 43.4626 16.8278L43.3896 16.9559C43.0375 17.5747 42.3118 17.8556 41.6454 17.6362C41.3371 17.5344 41.0151 17.4554 40.6776 17.4001C40.2663 17.3316 39.8343 17.2982 39.3792 17.2982C38.4105 17.2982 37.8102 17.4764 37.5775 17.8328C37.5037 17.9452 37.4659 18.076 37.4659 18.2252C37.4659 18.363 37.5028 18.4824 37.5775 18.5859C37.6419 18.6755 37.7347 18.7536 37.8566 18.8168C38.116 18.9537 38.5574 19.0573 39.1782 19.1249C39.7175 19.1662 40.2165 19.2329 40.6776 19.325C41.739 19.5366 42.5935 19.8815 43.2436 20.3599C44.1753 21.0464 44.6408 22.0066 44.6408 23.2417L44.6399 23.2408Z" fill="#FC3FCF"/>
</svg>
